<?xml version="1.0" standalone="no"?>
<!DOCTYPE svg PUBLIC "-//W3C//DTD SVG 20010904//EN"
 "http://www.w3.org/TR/2001/REC-SVG-20010904/DTD/svg10.dtd">
<svg version="1.0" xmlns="http://www.w3.org/2000/svg"
 width="657.000000pt" height="785.000000pt" viewBox="0 0 657.000000 785.000000"
 preserveAspectRatio="xMidYMid meet">

<g transform="translate(0.000000,785.000000) scale(0.100000,-0.100000)"
fill="#000000" stroke="none">
<path d="M3205 5845 c-214 -43 -395 -143 -417 -232 -3 -12 -1 -24 6 -27 6 -2
3 -5 -6 -5 -10 -1 -18 -5 -18 -11 0 -5 -9 -10 -20 -10 -11 0 -20 -3 -20 -7 0
-8 -15 -17 -120 -76 -30 -16 -68 -38 -85 -47 -16 -9 -57 -32 -90 -50 -33 -18
-64 -36 -70 -40 -8 -6 -51 -30 -150 -84 -11 -6 -22 -13 -25 -16 -3 -3 -14 -10
-25 -16 -99 -54 -142 -78 -150 -84 -5 -4 -37 -22 -70 -40 -33 -18 -73 -41 -90
-50 -16 -9 -57 -32 -90 -50 -147 -80 -201 -132 -209 -196 -7 -52 205 -751 226
-746 7 2 27 9 44 17 16 8 47 15 67 17 28 1 36 6 33 18 -3 8 -17 55 -31 103
-15 49 -25 90 -23 93 3 2 14 -5 26 -16 12 -11 25 -20 29 -20 4 0 25 -5 46 -11
l37 -10 0 -90 c0 -70 3 -91 15 -95 8 -4 15 -12 15 -19 0 -7 4 -15 9 -17 10 -4
111 -328 111 -357 0 -25 -53 -65 -108 -82 l-42 -12 2 -961 3 -961 32 -80 c67
-164 182 -301 408 -482 85 -68 444 -313 459 -313 3 0 24 -13 48 -29 239 -158
1085 -544 1156 -526 13 3 95 36 181 72 86 36 201 83 256 106 108 44 474 224
577 283 228 132 494 311 660 446 165 133 229 206 311 353 96 172 87 -4 87
1681 l0 1493 -102 74 c-307 223 -617 348 -1115 452 -33 7 -42 22 -23 41 6 6 2
32 -11 74 -11 36 -22 79 -23 95 -4 38 -38 148 -48 156 -5 3 -22 53 -39 111
-27 90 -34 105 -50 101 -10 -3 -24 -11 -30 -19 -6 -8 -18 -14 -25 -14 -8 0
-14 -4 -14 -10 0 -5 -9 -10 -20 -10 -11 0 -20 -4 -20 -10 0 -5 -11 -12 -25
-16 -14 -3 -25 -10 -25 -14 0 -4 -8 -10 -17 -13 -10 -3 -49 -24 -88 -47 -38
-22 -79 -45 -90 -50 -11 -6 -33 -18 -50 -28 -16 -11 -55 -32 -85 -49 -30 -17
-80 -45 -110 -62 -30 -18 -63 -35 -72 -38 -10 -3 -18 -9 -18 -14 0 -5 -6 -9
-14 -9 -8 0 -21 -6 -28 -12 -8 -7 -23 -18 -33 -24 -11 -6 -47 -26 -80 -44 -83
-46 -112 -62 -170 -95 -103 -58 -253 -133 -291 -145 -21 -6 -66 -22 -99 -35
-33 -13 -77 -26 -99 -29 -21 -4 -41 -8 -45 -10 -3 -2 -24 -7 -46 -11 -22 -4
-49 -9 -60 -11 -77 -13 -169 -23 -275 -29 -83 -5 -188 -13 -265 -20 -27 -3
-88 -7 -135 -10 -79 -5 -117 -8 -245 -19 -27 -3 -94 -8 -147 -11 -53 -3 -121
-8 -150 -10 -29 -3 -78 -7 -108 -10 -65 -6 -59 4 35 55 33 18 69 38 80 44 11
6 22 13 25 16 3 3 23 14 45 25 22 11 42 22 45 26 3 3 12 9 20 12 8 4 29 15 45
25 17 10 57 34 90 52 33 18 74 41 90 50 17 9 55 31 85 47 105 59 120 68 120
76 0 4 9 7 20 7 11 0 20 5 20 10 0 6 6 10 14 10 7 0 19 7 26 15 7 8 21 15 31
15 11 0 19 4 19 9 0 5 8 12 18 15 22 8 97 49 114 63 7 6 40 25 73 43 33 18 80
44 105 58 25 14 50 29 56 33 6 5 31 12 55 15 65 8 175 42 247 75 35 16 67 29
72 29 5 0 15 6 22 13 7 6 30 25 51 41 136 101 10 178 -218 131z m1703 -845
c241 -47 284 -60 501 -146 207 -81 362 -169 514 -291 l67 -54 0 -1364 0 -1364
-26 -73 c-57 -159 -116 -248 -246 -374 -94 -92 -301 -237 -496 -349 -9 -5 -60
-37 -112 -69 -249 -155 -921 -456 -1018 -456 -16 0 -101 30 -188 66 -88 36
-208 86 -269 111 -262 107 -590 289 -913 505 -220 148 -367 298 -447 458 -70
141 -65 31 -63 1405 l3 1240 85 8 c74 6 191 25 270 42 14 3 60 12 103 20 42 8
108 22 145 31 37 8 76 17 87 20 59 12 127 29 180 45 33 10 74 21 91 24 66 11
725 220 791 250 17 8 37 15 45 15 7 0 25 6 40 14 14 8 43 19 63 26 20 7 49 18
63 26 15 8 35 14 45 14 9 0 17 4 17 8 0 4 21 14 46 21 25 8 68 24 95 37 27 13
56 24 64 24 8 0 15 5 15 10 0 6 6 10 12 10 7 0 44 16 83 35 72 37 85 44 145
83 19 12 40 22 47 22 7 0 79 -13 161 -30z"/>
<path d="M3860 4385 c-171 -29 -360 -92 -482 -161 -33 -19 -62 -34 -65 -34
-16 0 -148 -98 -222 -165 -129 -116 -156 -150 -76 -95 107 74 241 129 415 172
72 17 354 17 435 0 159 -35 342 -114 455 -198 231 -172 396 -441 432 -709 14
-108 5 -324 -17 -400 -43 -145 -122 -314 -174 -372 -60 -67 -27 -41 60 48 170
174 188 197 276 353 149 263 231 535 248 821 7 113 -10 351 -26 371 -6 7 -45
39 -87 71 -214 163 -439 258 -707 299 -110 17 -363 16 -465 -1z"/>
<path d="M3226 3915 c-221 -76 -422 -239 -509 -411 -37 -73 -82 -233 -97 -341
-16 -116 -8 -369 15 -473 132 -594 624 -1041 1245 -1130 125 -18 429 -8 545
18 533 120 939 484 1105 989 11 34 20 66 20 69 0 4 -25 -25 -55 -66 -220 -294
-549 -512 -921 -610 -332 -87 -776 -59 -1059 68 l-60 27 140 7 c247 11 438 84
610 232 79 68 83 71 137 142 89 116 152 247 182 381 21 93 21 304 1 393 -40
173 -133 346 -242 453 -36 34 -46 38 -123 48 -206 26 -430 -28 -600 -144 -52
-36 -110 -87 -110 -97 0 -4 15 -14 33 -21 33 -14 168 -103 222 -146 17 -14 68
-61 114 -106 291 -283 439 -628 347 -806 -22 -41 -59 -68 -123 -88 -47 -15
-63 -15 -124 -5 -98 17 -212 63 -316 128 -107 68 -179 127 -302 252 -166 169
-252 304 -310 485 -28 87 -31 110 -31 220 0 105 4 134 25 196 55 163 155 278
297 341 60 26 26 23 -56 -5z"/>
</g>
</svg>
